<svg width="185" height="44" viewBox="0 0 185 44" fill="none" xmlns="http://www.w3.org/2000/svg">
<path d="M84.0024 0.650789H79.0375L75.5544 20.2658H81.2373L83.9643 4.90854H100.163C101.036 4.90854 102.869 5.01791 102.869 6.51701C102.869 8.57736 101.127 8.57736 100.027 8.57736H92.5135L92.0011 12.0166C92.0011 12.0166 98.6528 12.0162 99.2941 12.0166C101.714 12.0177 102.508 12.2647 102.411 13.4831C102.327 14.521 101.861 15.133 100.482 15.2427H84.7903L84.0787 20.167C84.0787 20.167 101.482 20.2385 102.139 20.1471C105.777 19.6414 107.74 17.3734 107.75 13.6653C107.755 11.6968 106.997 10.8171 104.975 10.4459L104.279 10.318L105.013 10.1377C107.525 9.52151 108.904 7.59823 108.918 4.692C108.93 2.07331 107.583 0.926468 104.209 0.693638C102.836 0.598862 84.6066 0.649097 84.0024 0.650789Z" fill="white"/>
<path d="M159.423 20.2659L154.691 15.4968C157.076 15.4233 159.453 14.1374 160.398 11.9049C161.406 9.51742 161.877 6.93342 161.778 4.33957C161.763 1.40988 159.109 0.650832 156.291 0.650832H113.226L112.44 5.30987H152.958C155.252 5.17167 155.626 6.31275 155.626 7.7793C155.626 9.6882 154.976 10.431 152.96 10.6433C152.964 10.6433 152.958 10.6435 149.874 10.6418L147.873 8.62517H139.807L151.357 20.2659H159.423Z" fill="white"/>
<path d="M51.4658 0.819292L59.5528 11.6351L63.0149 7.41875L58.0862 0.819292H51.4658Z" fill="white"/>
<path d="M146.063 43.1627H152.627L155.502 39.261H163.473L164.023 35.4436H158.315L163.838 27.9504H168.344L165.673 43.143H171.584C172.858 36.7356 173.934 30.1848 174.964 23.7341H160.173C160.173 23.7341 150.623 36.9061 146.063 43.1627Z" fill="white"/>
<path d="M96.4876 35.9944C96.6964 34.7122 98.5831 23.7489 98.5831 23.7489H104.507L104.461 23.9887C103.823 27.029 102.526 35.2048 102.551 36.0336C102.619 38.2403 103.318 38.6829 106.962 38.8248C111.265 38.9924 113.178 38.7216 114.229 37.7965C115.161 36.9761 115.433 36.1821 116.062 32.4495L117.331 23.7489H142.015C144.833 23.7489 147.487 24.508 147.501 27.4377C147.601 30.0315 147.13 32.6155 146.121 35.0029C145.177 37.2354 142.799 38.5214 140.415 38.5949L145.146 43.364H137.08L125.531 31.7233H133.597L135.598 33.7399C138.682 33.7415 138.687 33.7414 138.684 33.7414C140.7 33.5291 141.35 32.7863 141.35 30.8774C141.35 29.4108 140.976 28.2698 138.682 28.408H122.549L121.839 33.1937C120.647 40.0828 119.237 42.2059 115.235 43.135C114.252 43.3634 102.249 43.4567 100.826 43.2471C98.388 42.8879 97.0678 41.8869 96.5303 39.9898C96.3565 39.3765 96.3307 36.9583 96.4876 35.9944Z" fill="white"/>
<path d="M9.64625 23.8239C5.64382 24.1038 3.8546 25.3507 2.95532 28.4871C2.10642 31.4475 2.53001 33.6102 4.14454 34.5597C5.41044 35.3041 6.08026 35.3767 12.3098 35.4455C18.3819 35.5127 18.657 35.5412 19.4178 36.1826C20.0411 36.7083 19.8573 37.7752 19.0845 38.117C18.4598 38.3934 17.7262 38.4167 9.56462 38.4191L1.5314 38.4216L1.17777 40.7765C0.983251 42.0718 0.846311 43.1452 0.873417 43.162C1.00495 43.2433 19.3664 43.2094 20.0264 43.1267C22.967 42.758 24.4932 41.4083 25.3099 38.4543C26.3614 34.6499 25.7333 32.5349 23.2903 31.6548C22.0576 31.2107 21.7952 31.1937 15.3651 31.1431C9.65456 31.0983 9.43974 31.0913 9.14213 30.94C7.93652 30.3274 8.5714 28.9233 9.52874 28.5115C9.94908 28.3306 17.9099 28.4723 17.9099 28.4723L34.1738 28.4331L37.7218 23.7718L18.4792 23.7856C13.815 23.7931 9.84014 23.8103 9.64625 23.8239Z" fill="white"/>
<path d="M180.832 42.7893C180.8 42.95 180.75 43.2006 180.75 43.2006H174.839L178.251 23.7917L184.13 23.8925C184.13 23.8925 182.287 35.4407 180.832 42.7893Z" fill="white"/>
<path d="M59.6656 23.7718L55.9573 43.2005C55.9573 43.2005 61.8328 43.2863 61.8328 43.2005C61.8328 43.2005 64.5935 29.0513 64.6328 29.0114C64.6328 29.0123 76.1084 42.0905 76.1084 42.0905L89.6421 28.9693L87.1605 43.2005H93.0361L96.4048 23.7718H87.8593L76.6253 34.0861L68.2384 23.7718H59.6656Z" fill="white"/>
<path d="M33.653 43.1627H27.0893L41.2 23.7341H55.9906C54.9609 30.1848 53.8846 36.7356 52.6108 43.143H46.6995L49.3704 27.9504H44.8643L39.3419 35.4436H45.0497L44.4997 39.261H36.5286L33.653 43.1627Z" fill="white"/>
<path d="M109.559 20.2554C109.56 20.2554 111.596 8.6719 111.596 8.6719H135.822L135.127 12.4893H116.979L116.368 15.3568H134.549L133.768 20.2657L109.559 20.2554Z" fill="white"/>
<path d="M63.8957 20.248L77.497 0.819292H70.3735L59.7128 15.4659L49.8932 15.4318C48.9232 15.4266 47.9574 15.422 47.0056 15.4175C39.3281 15.3814 32.5603 15.3496 31.845 15.0078C30.7437 14.4813 30.5025 13.0767 31.0292 10.2582C31.6298 7.0448 32.2275 6.11482 34.0371 5.57841C34.4765 5.44819 35.2422 5.41483 35.2422 5.41483L47.4516 5.3919L48.3317 0.650832H33.563C28.04 0.983831 26.1078 3.31129 24.8746 11.0092C23.8848 17.188 24.857 19.3043 29.0406 20.0781C30.3639 20.323 33.563 20.2658 33.563 20.2658C41.6971 20.2658 63.8957 20.248 63.8957 20.248Z" fill="white"/>
</svg>
