<svg width="40" height="34" viewBox="0 0 40 34" fill="none" xmlns="http://www.w3.org/2000/svg">
<path d="M36.544 1.00391L2.4176 14.241C0.548436 14.7925 0.605077 16.6794 1.99279 17.1438L10.5456 19.8725L13.8308 30.1486C14.2273 31.2808 14.5672 31.6872 15.2468 31.7162C15.9549 31.7162 16.2381 31.4549 16.9744 30.7873C17.8523 29.9454 19.1551 28.6392 21.2508 26.5491L30.1435 33.2837C31.7861 34.2126 32.9756 33.7192 33.3721 31.7162L38.9512 3.44231C39.5176 1.00391 38.1299 0.278195 36.544 1.00391ZM11.905 19.2629L31.333 6.75158C32.2959 6.08392 32.5791 6.83866 32.1543 7.33215L16.0115 22.1948L15.1902 29.6552L11.905 19.2629Z" fill="white"/>
</svg>
