<svg width="51" height="30" viewBox="0 0 51 30" fill="none" xmlns="http://www.w3.org/2000/svg">
<path fill-rule="evenodd" clip-rule="evenodd" d="M48.9171 2.02055C49.2653 0.847013 48.9171 0.00597475 47.2585 0.00597475H41.7781C41.2643 -0.0307474 40.7527 0.102551 40.3222 0.385319C39.8917 0.668086 39.5662 1.08462 39.3958 1.5707C39.3958 1.5707 36.6106 8.35768 32.6675 12.7702C31.3922 14.0454 30.8094 14.4523 30.1131 14.4523C29.7649 14.4523 29.2603 14.0611 29.2603 12.8875V2.02055C29.2603 0.627952 28.8691 0.00597475 27.6956 0.00597475H19.0896C18.9152 -0.00403664 18.7405 0.0207261 18.5757 0.0788257C18.4109 0.136925 18.2593 0.227204 18.1298 0.344408C18.0002 0.461612 17.8952 0.603404 17.8209 0.761544C17.7466 0.919684 17.7045 1.09101 17.697 1.26558C17.697 2.58385 19.6529 2.88897 19.872 6.60128V14.6674C19.872 16.4356 19.5551 16.7563 18.8588 16.7563C17.0007 16.7563 12.4865 9.93805 9.80689 2.134C9.28662 0.620129 8.75853 0.00597475 7.35419 0.00597475H1.87767C0.312944 0.00597475 0 0.741394 0 1.5707C0 3.02198 1.85811 10.2158 8.64509 19.7293C13.175 26.2151 19.5512 29.7357 25.3485 29.7357C28.83 29.7357 29.2603 28.9533 29.2603 27.6077V22.6944C29.2603 21.1297 29.5928 20.8168 30.6959 20.8168C31.5057 20.8168 32.8983 21.208 36.149 24.357C39.8652 28.0693 40.4793 29.7357 42.5604 29.7357H48.0369C49.6017 29.7357 50.384 28.9533 49.9342 27.4082C49.4843 25.863 47.6692 23.6372 45.3143 20.9928C44.0391 19.4828 42.1262 17.8634 41.5434 17.0458C40.7336 16.0013 40.9644 15.5358 41.5434 14.6087C41.5473 14.6087 48.2208 5.20867 48.9171 2.02055Z" fill="white"/>
</svg>
